<svg width="287" height="474" viewBox="0 0 287 474" fill="none" xmlns="http://www.w3.org/2000/svg">
<path fill-rule="evenodd" clip-rule="evenodd" d="M26.047 68.8765C26.047 68.8765 31.1014 47.139 50.1764 46.1515C69.2512 45.1643 78.2124 22.7072 94.365 21.72C110.518 20.7328 116.596 49.7611 137.906 48.2801C159.216 46.7992 167.981 68.8765 167.981 68.8765H26.047Z" fill="#ECF6FF"/>
<path fill-rule="evenodd" clip-rule="evenodd" d="M287 103H126C126 103 136.462 78.7521 158.168 78.7521C171.809 78.7521 177.294 87.3252 189.962 87.3252C202.63 87.3252 218.726 66 239.45 66C271.865 66 287 103 287 103Z" fill="#ECF6FF"/>
<path fill-rule="evenodd" clip-rule="evenodd" d="M166.337 58.8483C166.337 58.8483 180.206 78.9428 161.376 84.2763L166.337 58.8483Z" fill="#19141E"/>
<path fill-rule="evenodd" clip-rule="evenodd" d="M140.497 127.925L140.036 110.207C140.036 110.207 159.883 111.921 164.025 109.528C164.025 109.528 167.174 87.9985 164.18 72.7339L147.883 56.3722L121.581 58.5252L118.596 84.9935C117.22 80.4796 104.691 74.8205 101.684 84.9474C97.8055 98.0059 120.159 104.868 120.159 104.868L117.823 128.137" fill="#E576C6"/>
<path fill-rule="evenodd" clip-rule="evenodd" d="M108.308 79.3041C108.308 79.3041 95.5391 73.5274 110.416 56.4135C125.293 39.2996 138.55 48.1803 138.55 48.1803C138.55 48.1803 142.29 30.7431 152.639 30.7933C167.384 30.864 169.659 56.1939 169.659 56.1939C169.659 56.1939 177.091 42.4184 181.317 44.3874C185.542 46.357 185.659 92.111 126.993 69.8134C126.993 69.8134 132.037 82.4316 118.596 84.994C118.596 84.994 116.252 79.6084 108.308 79.3041Z" fill="#19141E"/>
<path d="M113.917 42.8954L115.765 54.3241L111.915 56.3725L104.8 48.3135" stroke="#19141E" stroke-width="9"/>
<path opacity="0.4" fill-rule="evenodd" clip-rule="evenodd" d="M140.036 110.206L126.979 107.093L139.973 116.854L140.036 110.206Z" fill="black"/>
<path fill-rule="evenodd" clip-rule="evenodd" d="M151.054 83.5464L155.566 95.812L150.158 95.8884L151.054 83.5464Z" fill="#125475"/>
<path fill-rule="evenodd" clip-rule="evenodd" d="M145.661 84.7382C145.93 86.3896 144.943 87.9706 143.458 88.2694C141.972 88.5683 140.551 87.4717 140.282 85.8197C140.013 84.1684 141 82.5874 142.485 82.2891C143.971 81.9896 145.392 83.0863 145.661 84.7382Z" fill="#0D0B6D"/>
<path fill-rule="evenodd" clip-rule="evenodd" d="M159.852 84.7382C160.121 86.3896 159.134 87.9706 157.649 88.2694C156.163 88.5683 154.741 87.4717 154.473 85.8197C154.204 84.1684 155.19 82.5874 156.676 82.2891C158.161 81.9896 159.583 83.0863 159.852 84.7382Z" fill="#0D0B6D"/>
<path fill-rule="evenodd" clip-rule="evenodd" d="M144.065 97.8246C144.065 97.8246 145.802 101.332 149.554 101.249L144.065 97.8246Z" fill="white"/>
<path d="M144.065 97.8246C144.065 97.8246 145.802 101.332 149.554 101.249" stroke="#252535" stroke-width="4"/>
<path fill-rule="evenodd" clip-rule="evenodd" d="M198.083 162.516C193.197 175.664 176.045 218.823 163.817 211.939C154.662 206.784 143.702 164.052 143.702 164.052L161.518 149.522L169.523 178.888L185.869 154.552C185.314 149.73 184.869 143.427 185.975 141.205C187.859 137.422 197.39 125.769 197.39 125.769L199.126 145.513L199.429 143.849C199.428 143.756 199.445 143.656 199.479 143.547C199.482 143.537 199.486 143.527 199.489 143.516L200.191 139.663C199.896 139.46 199.776 139.169 199.903 138.767C200.007 138.441 200.232 138.084 200.547 137.708L202.943 124.553C202.943 124.553 203.728 125.033 204.881 125.75C206.735 125.227 213.448 131.481 213.55 131.576L213.552 131.577C214.919 132.787 211.667 152.784 209.027 156.499C207.148 159.142 201.302 161.421 198.083 162.516ZM88.9388 251.687L90.0301 254.526C90.0301 254.526 91.0178 256.846 92.052 260.895C93.0857 264.943 92.6563 267.42 94.8929 273.779C97.4319 280.998 92.8905 278.021 91.2621 274.87C89.9911 272.411 90.1354 269.087 88.4876 267.597C87.9356 268.804 86.6738 270.531 85.9699 280.946C85.8437 282.814 86.4617 288.873 86.4617 288.873C86.475 290.688 86.645 294.474 85.1367 295.052C84.763 295.196 84.2765 294.629 84.2765 294.629C84.2765 294.629 84.4226 296.999 82.8815 297.47C82.2754 297.655 81.0716 292.54 81.0716 292.54C81.0716 292.54 80.8883 295.138 79.7373 295.427C79.4119 295.508 75.5699 280.688 75.5699 280.688L75.801 284.035L76.3111 287.463C76.3111 287.463 76.2699 289.309 75.1883 289.635C74.7589 289.765 73.9345 286.687 73.162 283.066C71.9604 277.431 71.9848 273.197 72.3385 268.986C72.7653 263.898 72.5754 262.189 74.2281 255.949C74.4257 255.203 74.691 254.346 74.9872 253.465C74.0805 242.738 71.5252 211.339 71.8383 201.699C72.2178 190.007 81.2572 164.052 81.2572 164.052L99.6093 178.112L89.494 203.369L88.9388 251.687ZM132.844 135.381C122.214 134.525 117.73 125.471 116.707 123.022C123.451 122.384 124.156 122.478 133.14 123.753C136.783 124.27 139.339 125.333 141.814 126.261C142.349 128.752 143.111 136.201 132.844 135.381Z" fill="#E576C6"/>
<path fill-rule="evenodd" clip-rule="evenodd" d="M98.5169 229.924H157.623L159.789 180.022L170.163 171.752L162.895 148.896L162.831 148.913C162.528 148.082 162.196 147.22 161.832 146.324C157.322 135.21 149.606 128.943 141.441 125.903C141.309 125.854 141.256 125.819 141.25 125.83C141.234 125.86 141.517 126.186 141.598 127.326C141.712 128.919 141.344 131.081 140.957 131.739C140.044 133.289 138.665 134.169 138.111 134.376C137.556 134.583 137.116 134.703 136.626 134.836C136.282 134.93 134.326 135.128 133.988 135.104C131.205 134.906 129.841 134.729 128.089 134.16C127.468 133.958 126.827 133.729 126.065 133.291C125.923 133.208 125.766 133.121 125.599 133.026C124.776 132.564 123.68 131.948 122.568 131.098C121.391 130.198 120.192 129.012 119.324 127.801C119.241 127.684 119.159 127.57 119.079 127.46C118.168 126.19 117.546 125.323 117.116 124.454C116.824 123.866 116.714 123.671 116.649 123.556C116.61 123.487 116.588 123.447 116.552 123.367C116.456 123.156 116.374 122.97 116.35 122.845C116.325 122.711 116.416 122.653 116.412 122.64C116.41 122.631 116.37 122.64 116.237 122.658C112.077 123.22 107.606 124.689 102.73 127.801C87.6503 137.422 78.837 161.596 78.837 161.596L97.5258 180.712L98.5169 229.924Z" fill="#2ED3DC"/>
<path opacity="0.200521" d="M97.5705 180.795L102.386 185.419L113.962 166.346" stroke="black" stroke-width="5"/>
<path fill-rule="evenodd" clip-rule="evenodd" d="M206.097 148.835L205.278 154.425H192.019L198.273 109.921H211.533C211.189 112.366 210.38 118.127 209.104 127.201L206.497 125.519L205.685 125.206L205.046 125.256L204.769 125.519V126.601L207.603 132.274L205.435 133.589L202.099 136.024L201.135 136.953L200.761 137.434L200.456 137.814L200.262 138.141L200.145 138.433L200.096 138.812L200.145 138.98L200.204 139.109L200.288 139.225L201.381 139.763L203.876 138.812H206.341L203.05 139.763L200.882 141.568L200.145 142.535L199.729 143.245V143.895L200.456 144.351L205.046 143.617L203.526 144.768L202.519 145.637L201.596 146.3L200.882 147.582V148.214L201.135 148.586L201.776 149.06H202.753H204.722L206.097 148.835Z" fill="#5E93D1"/>
<path fill-rule="evenodd" clip-rule="evenodd" d="M191.907 154.425H189.677L196.034 109.921H198.263L191.907 154.425Z" fill="#020101"/>
<path fill-rule="evenodd" clip-rule="evenodd" d="M200.555 114.931C200.403 116.24 199.953 117.195 199.549 117.061C199.146 116.928 198.942 115.758 199.094 114.448C199.246 113.138 199.696 112.184 200.099 112.317C200.503 112.451 200.707 113.621 200.555 114.931Z" fill="#020101"/>
<path fill-rule="evenodd" clip-rule="evenodd" d="M61.3058 398.014L72.9389 386.573L68.8978 375L44 394.826L64.1688 432.583C64.1688 432.583 64.817 423.2 63.7623 412.806C63.0339 405.627 61.3058 398.014 61.3058 398.014ZM172.581 423.322L169.924 414.137L158.675 414.774L168.037 440L204 417.656C193.328 414.192 172.581 423.322 172.581 423.322Z" fill="#4150B4"/>
<path fill-rule="evenodd" clip-rule="evenodd" d="M54 386.531L68.3082 375L69.5851 389.375L60.8974 397.827L54 386.531ZM162.809 427L158.71 416.416L169.814 415.35L172 422.918L162.809 427Z" fill="#CF3E83"/>
<path fill-rule="evenodd" clip-rule="evenodd" d="M113.894 280.9L99.1016 230H137.065L157.047 230C157.085 242.451 155.699 262.959 148.362 286.31L171.655 402.391C171.944 403.849 171.455 405.304 170.461 406.246L174 419.544L159.533 424L156.088 411.608L155.998 411.64C153.946 412.357 151.738 411.152 151.106 408.977L128.093 329.783C125.498 333.832 122.67 337.872 119.596 341.883C100.136 367.286 88.0064 380.985 81.7684 387.576C79.5416 389.933 76.0773 390.048 73.7281 388.122L64.8326 395.872L56 383.017L64.7911 375.357C63.382 372.966 63.6139 369.858 65.4149 367.737C74.3781 357.154 99.6035 324.836 113.894 280.9Z" fill="#BBCBD7"/>
<path fill-rule="evenodd" clip-rule="evenodd" d="M164 408.709L157.949 411L133.668 321.218L118.689 265.83L109 230H121.281L123.44 239.036L140.077 308.629L164 408.709Z" fill="#BBCBD7"/>
</svg>
